<svg width="25" height="30" viewBox="0 0 25 30" fill="none" xmlns="http://www.w3.org/2000/svg">
<path d="M0 3C0 2.20435 0.327359 1.44129 0.910061 0.87868C1.49276 0.31607 2.28308 0 3.10714 0H15.5357C15.9477 8.49561e-05 16.3428 0.158176 16.6341 0.4395L24.4019 7.9395C24.6933 8.22074 24.8571 8.60221 24.8571 9V27C24.8571 27.7956 24.5298 28.5587 23.9471 29.1213C23.3644 29.6839 22.5741 30 21.75 30H3.10714C2.28308 30 1.49276 29.6839 0.910061 29.1213C0.327359 28.5587 0 27.7956 0 27V3ZM21.1068 9L15.5357 3.621V9H21.1068ZM12.4286 3H3.10714V27H21.75V12H13.9821C13.5701 12 13.175 11.842 12.8836 11.5607C12.5923 11.2794 12.4286 10.8978 12.4286 10.5V3ZM12.4286 15C12.8406 15 13.2358 15.158 13.5271 15.4393C13.8185 15.7206 13.9821 16.1022 13.9821 16.5V18H15.5357C15.9477 18 16.3429 18.158 16.6343 18.4393C16.9256 18.7206 17.0893 19.1022 17.0893 19.5C17.0893 19.8978 16.9256 20.2794 16.6343 20.5607C16.3429 20.842 15.9477 21 15.5357 21H13.9821V22.5C13.9821 22.8978 13.8185 23.2794 13.5271 23.5607C13.2358 23.842 12.8406 24 12.4286 24C12.0165 24 11.6214 23.842 11.33 23.5607C11.0387 23.2794 10.875 22.8978 10.875 22.5V21H9.32143C8.9094 21 8.51424 20.842 8.22289 20.5607C7.93154 20.2794 7.76786 19.8978 7.76786 19.5C7.76786 19.1022 7.93154 18.7206 8.22289 18.4393C8.51424 18.158 8.9094 18 9.32143 18H10.875V16.5C10.875 16.1022 11.0387 15.7206 11.33 15.4393C11.6214 15.158 12.0165 15 12.4286 15Z" fill="#CCCCCC"/>
</svg>
