<svg width="33" height="23" viewBox="0 0 33 23" fill="none" xmlns="http://www.w3.org/2000/svg">
<path d="M32.3846 0.413945C32.7481 0.702582 32.9683 1.10817 32.9968 1.54161C33.0254 1.97505 32.86 2.40089 32.537 2.72556L12.9579 22.3849C12.7857 22.5579 12.5744 22.6963 12.3379 22.7912C12.1014 22.886 11.845 22.935 11.5858 22.935C11.3265 22.935 11.0702 22.886 10.8337 22.7912C10.5972 22.6963 10.3858 22.5579 10.2136 22.3849L0.424068 12.5553C0.119567 12.2283 -0.0306296 11.8086 0.00520599 11.3847C0.0410416 10.9608 0.260103 10.5659 0.616115 10.2835C0.972127 10.0011 1.43721 9.85319 1.91311 9.87113C2.38902 9.88907 2.83847 10.0714 3.16654 10.3796L11.5848 18.8315L29.7945 0.548284C30.1182 0.224159 30.5728 0.027951 31.0584 0.00276204C31.5441 -0.0224269 32.0211 0.125463 32.3846 0.413945Z" fill="#CCCCCC"/>
</svg>
