<svg width="25" height="36" viewBox="0 0 25 36" fill="none" xmlns="http://www.w3.org/2000/svg">
<path d="M23.434 0.753553C24.0041 1.2362 24.3243 1.89072 24.3243 2.57318C24.3243 3.25564 24.0041 3.91016 23.434 4.3928L7.33961 18.0155L23.434 31.6383C23.9879 32.1237 24.2944 32.7738 24.2875 33.4486C24.2806 34.1235 23.9608 34.769 23.397 35.2462C22.8332 35.7234 22.0706 35.994 21.2733 35.9999C20.4761 36.0058 19.708 35.7463 19.1345 35.2775L0.890277 19.8352C0.320233 19.3525 0 18.698 0 18.0155C0 17.3331 0.320233 16.6786 0.890277 16.1959L19.1345 0.753553C19.7047 0.271053 20.478 0 21.2843 0C22.0906 0 22.8638 0.271053 23.434 0.753553Z" fill="#CCCCCC"/>
</svg>
