<svg width="25" height="25" viewBox="0 0 25 25" fill="none" xmlns="http://www.w3.org/2000/svg">
<path d="M0.522383 0.544688C0.856965 0.210207 1.31069 0.0223054 1.78379 0.0223054C2.25689 0.0223054 2.71062 0.210207 3.04521 0.544688L12.4888 9.98833L21.9325 0.544688C22.0971 0.374281 22.2939 0.238358 22.5116 0.144852C22.7293 0.0513448 22.9634 0.00212598 23.2003 6.73652e-05C23.4372 -0.00199125 23.6722 0.0431511 23.8914 0.132861C24.1107 0.222571 24.3099 0.355051 24.4774 0.522573C24.6449 0.690094 24.7774 0.889301 24.8671 1.10857C24.9568 1.32784 25.002 1.56278 24.9999 1.79968C24.9979 2.03658 24.9487 2.2707 24.8551 2.48838C24.7616 2.70605 24.6257 2.90293 24.4553 3.06751L15.0117 12.5112L24.4553 21.9548C24.7803 22.2913 24.9601 22.742 24.9561 23.2098C24.952 23.6776 24.7644 24.1251 24.4336 24.4559C24.1028 24.7867 23.6553 24.9743 23.1875 24.9784C22.7197 24.9825 22.269 24.8026 21.9325 24.4776L12.4888 15.034L3.04521 24.4776C2.70871 24.8026 2.25802 24.9825 1.79021 24.9784C1.32241 24.9743 0.874917 24.7867 0.544116 24.4559C0.213316 24.1251 0.0256753 23.6776 0.0216102 23.2098C0.0175451 22.742 0.197381 22.2913 0.522383 21.9548L9.96602 12.5112L0.522383 3.06751C0.187901 2.73293 0 2.2792 0 1.8061C0 1.333 0.187901 0.87927 0.522383 0.544688Z" fill="#CCCCCC"/>
</svg>
