<svg width="35" height="34" viewBox="0 0 35 34" fill="none" xmlns="http://www.w3.org/2000/svg">
<path d="M16.2408 1.05121V5.70877L5.03651 11.2429L16.2227 16.7952L16.2408 21.4163L0.0545511 13.1971V9.25207L16.2408 1.05121Z" fill="#CCCCCC" stroke="#CCCCCC" stroke-width="0.997742" stroke-miterlimit="2" stroke-linejoin="round"/>
<path d="M18.7775 21.4163V16.7587L29.9637 11.2246L18.7775 5.67215L18.7592 1.05121L34.9454 9.27039V13.2154L18.7775 21.4163Z" fill="#CCCCCC" stroke="#CCCCCC" stroke-width="0.997742" stroke-miterlimit="2" stroke-linejoin="round"/>
<path d="M7.29396 17.9559H6.85372V19.0413H7.29396V17.9559Z" fill="#CCCCCC"/>
<path fill-rule="evenodd" clip-rule="evenodd" d="M7.29293 24.1502C7.29539 22.2248 7.2995 19.2518 7.29143 18.8042C7.28022 18.1756 6.76069 17.6742 6.13205 17.6854C5.50329 17.6966 5.00194 18.2163 5.01315 18.8449C5.02463 19.4815 5.0111 25.249 5.01301 25.7748C5.01479 26.2674 5.23887 26.5682 5.51928 26.7686C5.73598 26.9236 6.09391 27.0783 6.60579 26.9504C6.79213 26.904 7.08553 26.7793 7.4503 26.5999C8.00647 26.3265 8.83157 25.8916 9.732 25.7245C11.43 25.4094 13.1587 25.5852 14.2914 26.1787C15.0368 26.5693 16.029 27.2953 16.4186 28.4695C16.6167 29.0663 17.2621 29.3901 17.8588 29.1919C18.4557 28.9938 18.7794 28.3485 18.5814 27.7518C17.979 25.9368 16.5011 24.764 15.3491 24.1604C13.8483 23.374 11.5659 23.0665 9.3161 23.4841C8.58301 23.6202 7.88506 23.8851 7.29293 24.1502Z" fill="#CCCCCC"/>
<path fill-rule="evenodd" clip-rule="evenodd" d="M7.29457 17.9563L5.01648 19.0905L5.01527 16.8252L7.29457 17.9563Z" fill="#CCCCCC"/>
<path d="M27.706 17.9559H28.1463V19.0413H27.706V17.9559Z" fill="#CCCCCC"/>
<path fill-rule="evenodd" clip-rule="evenodd" d="M27.7071 24.1502C27.1149 23.8851 26.417 23.6202 25.6839 23.4841C23.4341 23.0665 21.1517 23.374 19.6509 24.1604C18.4989 24.764 17.021 25.9368 16.4186 27.7518C16.2206 28.3485 16.5443 28.9938 17.1412 29.1919C17.7379 29.3901 18.3833 29.0663 18.5814 28.4695C18.971 27.2953 19.9632 26.5693 20.7086 26.1787C21.8413 25.5852 23.57 25.4094 25.268 25.7245C26.1684 25.8916 26.9935 26.3265 27.5497 26.5999C27.9145 26.7793 28.2079 26.904 28.3942 26.9504C28.9061 27.0783 29.264 26.9236 29.4807 26.7686C29.7611 26.5682 29.9852 26.2674 29.987 25.7748C29.9889 25.249 29.9754 19.4815 29.9868 18.8449C29.9981 18.2163 29.4967 17.6966 28.8679 17.6854C28.2393 17.6742 27.7198 18.1756 27.7086 18.8042C27.7005 19.2518 27.7046 22.2248 27.7071 24.1502Z" fill="#CCCCCC"/>
<path fill-rule="evenodd" clip-rule="evenodd" d="M27.7054 17.9563L29.9835 19.0905L29.9847 16.8252L27.7054 17.9563Z" fill="#CCCCCC"/>
<path fill-rule="evenodd" clip-rule="evenodd" d="M16.4398 28.5263H18.56L18.3076 29.589H16.6924L16.4398 28.5263Z" fill="#CCCCCC"/>
<path fill-rule="evenodd" clip-rule="evenodd" d="M33.6365 16.1739C33.6365 16.1377 33.6074 16.109 33.5714 16.109H31.4339C31.3979 16.109 31.3688 16.1377 31.3688 16.1739V28.2228C31.3688 28.259 31.3979 28.2877 31.4339 28.2877H33.5714C33.6074 28.2877 33.6365 28.259 33.6365 28.2228V16.1739Z" fill="#CCCCCC"/>
<path fill-rule="evenodd" clip-rule="evenodd" d="M31.397 16.1187L33.6367 15.0049V17.2326L31.397 16.1187Z" fill="#CCCCCC"/>
<path d="M31.96 34.2152H30.2695L31.4284 29.0274H33.5808L34.7397 34.2152H33.0537L32.509 31.2392L31.96 34.2152Z" fill="#CCCCCC" stroke="#CCCCCC" stroke-width="0.938867" stroke-miterlimit="2" stroke-linejoin="round"/>
</svg>
