<svg width="80" height="80" viewBox="0 0 80 80" fill="none" xmlns="http://www.w3.org/2000/svg">
<path d="M40 0C41.3261 0 42.5979 0.526785 43.5355 1.46447C44.4732 2.40215 45 3.67392 45 5V35H75C76.3261 35 77.5979 35.5268 78.5355 36.4645C79.4732 37.4021 80 38.6739 80 40C80 41.3261 79.4732 42.5979 78.5355 43.5355C77.5979 44.4732 76.3261 45 75 45H45V75C45 76.3261 44.4732 77.5979 43.5355 78.5355C42.5979 79.4732 41.3261 80 40 80C38.6739 80 37.4021 79.4732 36.4645 78.5355C35.5268 77.5979 35 76.3261 35 75V45H5C3.67392 45 2.40215 44.4732 1.46447 43.5355C0.526785 42.5979 0 41.3261 0 40C0 38.6739 0.526785 37.4021 1.46447 36.4645C2.40215 35.5268 3.67392 35 5 35H35V5C35 3.67392 35.5268 2.40215 36.4645 1.46447C37.4021 0.526785 38.6739 0 40 0Z" fill="#CCCCCC"/>
</svg>
