<svg width="35" height="30" viewBox="0 0 35 30" fill="none" xmlns="http://www.w3.org/2000/svg">
<path d="M8.75 3C8.75 2.20435 9.11875 1.44129 9.77513 0.87868C10.4315 0.31607 11.3217 0 12.25 0H22.75C23.6783 0 24.5685 0.31607 25.2249 0.87868C25.8813 1.44129 26.25 2.20435 26.25 3V6H33.25C33.7141 6 34.1592 6.15804 34.4874 6.43934C34.8156 6.72064 35 7.10218 35 7.5C35 7.89782 34.8156 8.27936 34.4874 8.56066C34.1592 8.84196 33.7141 9 33.25 9H31.3792L29.862 27.213C29.7991 27.9699 29.404 28.6782 28.7562 29.1954C28.1084 29.7125 27.256 30 26.3708 30H8.6275C7.74224 30 6.88987 29.7125 6.24205 29.1954C5.59423 28.6782 5.1991 27.9699 5.13625 27.213L3.6225 9H1.75C1.28587 9 0.840752 8.84196 0.512563 8.56066C0.184374 8.27936 0 7.89782 0 7.5C0 7.10218 0.184374 6.72064 0.512563 6.43934C0.840752 6.15804 1.28587 6 1.75 6H8.75V3ZM12.25 6H22.75V3H12.25V6ZM7.1295 9L8.62925 27H26.3725L27.8723 9H7.1295ZM14 12C14.4641 12 14.9092 12.158 15.2374 12.4393C15.5656 12.7206 15.75 13.1022 15.75 13.5V22.5C15.75 22.8978 15.5656 23.2794 15.2374 23.5607C14.9092 23.842 14.4641 24 14 24C13.5359 24 13.0908 23.842 12.7626 23.5607C12.4344 23.2794 12.25 22.8978 12.25 22.5V13.5C12.25 13.1022 12.4344 12.7206 12.7626 12.4393C13.0908 12.158 13.5359 12 14 12ZM21 12C21.4641 12 21.9092 12.158 22.2374 12.4393C22.5656 12.7206 22.75 13.1022 22.75 13.5V22.5C22.75 22.8978 22.5656 23.2794 22.2374 23.5607C21.9092 23.842 21.4641 24 21 24C20.5359 24 20.0908 23.842 19.7626 23.5607C19.4344 23.2794 19.25 22.8978 19.25 22.5V13.5C19.25 13.1022 19.4344 12.7206 19.7626 12.4393C20.0908 12.158 20.5359 12 21 12Z" fill="#CCCCCC"/>
</svg>
